<?xml version="1.0" encoding="UTF-8" standalone="no"?>
<!-- Created with Inkscape (http://www.inkscape.org/) -->

<svg
   xmlns:dc="http://purl.org/dc/elements/1.1/"
   xmlns:cc="http://creativecommons.org/ns#"
   xmlns:rdf="http://www.w3.org/1999/02/22-rdf-syntax-ns#"
   xmlns:svg="http://www.w3.org/2000/svg"
   xmlns="http://www.w3.org/2000/svg"
   xmlns:xlink="http://www.w3.org/1999/xlink"
   xmlns:sodipodi="http://sodipodi.sourceforge.net/DTD/sodipodi-0.dtd"
   xmlns:inkscape="http://www.inkscape.org/namespaces/inkscape"
   sodipodi:docname="2.svg"
   inkscape:version="0.48.2 r9819"
   version="1.1"
   id="svg2"
   height="372"
   width="308.98691"
   style="enable-background:new">
  <title
     id="title3788">2</title>
  <sodipodi:namedview
     id="base"
     pagecolor="#ffffff"
     bordercolor="#666666"
     borderopacity="1.0"
     inkscape:pageopacity="0.0"
     inkscape:pageshadow="2"
     inkscape:zoom="1"
     inkscape:cx="132.01493"
     inkscape:cy="178.66086"
     inkscape:document-units="px"
     inkscape:current-layer="text2999"
     showgrid="false"
     inkscape:window-width="1280"
     inkscape:window-height="977"
     inkscape:window-x="-2"
     inkscape:window-y="24"
     inkscape:window-maximized="1"
     fit-margin-top="1"
     fit-margin-left="1"
     fit-margin-right="1"
     fit-margin-bottom="1"
     inkscape:showpageshadow="true" />
  <defs
     id="defs4">
    <linearGradient
       id="linearGradient3771">
      <stop
         style="stop-color:#ff9889;stop-opacity:1;"
         offset="0"
         id="stop3774" />
      <stop
         style="stop-color:#ff0000;stop-opacity:1;"
         offset="1"
         id="stop3776" />
    </linearGradient>
    <linearGradient
       id="linearGradient3757">
      <stop
         id="stop3773"
         offset="0"
         style="stop-color:#ff9c79;stop-opacity:1;" />
      <stop
         style="stop-color:#ff0000;stop-opacity:1;"
         offset="1"
         id="stop3761" />
    </linearGradient>
    <radialGradient
       inkscape:collect="always"
       xlink:href="#linearGradient3757"
       id="radialGradient3779"
       cx="167.71463"
       cy="315.95056"
       fx="167.71463"
       fy="315.95056"
       r="190.65143"
       gradientTransform="matrix(-0.00444422,1.9933289,-1.9130842,-0.00426533,778.8557,-128.96836)"
       gradientUnits="userSpaceOnUse" />
    <radialGradient
       inkscape:collect="always"
       xlink:href="#linearGradient3771"
       id="radialGradient3780"
       cx="174.10281"
       cy="366.85941"
       fx="174.10281"
       fy="366.85941"
       r="191.13116"
       gradientTransform="matrix(0.39875522,2.0324032,-2.87252,0.56358517,1039.8008,-661.9669)"
       gradientUnits="userSpaceOnUse" />
    <linearGradient
       id="linearGradient3757-8">
      <stop
         id="stop3773-7"
         offset="0"
         style="stop-color:#ff9c79;stop-opacity:1;" />
      <stop
         style="stop-color:#ff0000;stop-opacity:1;"
         offset="1"
         id="stop3761-9" />
    </linearGradient>
    <radialGradient
       inkscape:collect="always"
       xlink:href="#linearGradient3771-0"
       id="radialGradient3780-2"
       cx="174.10281"
       cy="366.85941"
       fx="174.10281"
       fy="366.85941"
       r="191.13116"
       gradientTransform="matrix(0.23624269,1.2040981,-1.7018256,0.33389627,751.98129,-89.410904)"
       gradientUnits="userSpaceOnUse" />
    <linearGradient
       id="linearGradient3771-0">
      <stop
         style="stop-color:#ff9889;stop-opacity:1;"
         offset="0"
         id="stop3774-2" />
      <stop
         style="stop-color:#ff0000;stop-opacity:1;"
         offset="1"
         id="stop3776-3" />
    </linearGradient>
    <radialGradient
       inkscape:collect="always"
       xlink:href="#linearGradient3771-0"
       id="radialGradient3805"
       cx="174.10281"
       cy="366.85941"
       fx="174.10281"
       fy="366.85941"
       r="191.13116"
       gradientTransform="matrix(0.23624269,1.2040981,-1.7018256,0.33389627,751.98129,-89.410904)"
       gradientUnits="userSpaceOnUse" />
    <linearGradient
       id="linearGradient3807">
      <stop
         style="stop-color:#ff9889;stop-opacity:1;"
         offset="0"
         id="stop3809" />
      <stop
         style="stop-color:#ff0000;stop-opacity:1;"
         offset="1"
         id="stop3811" />
    </linearGradient>
    <radialGradient
       r="191.13116"
       fy="366.85941"
       fx="174.10281"
       cy="366.85941"
       cx="174.10281"
       gradientTransform="matrix(0.23624269,1.2040981,-1.7018256,0.33389627,751.98129,-89.410904)"
       gradientUnits="userSpaceOnUse"
       id="radialGradient3820"
       xlink:href="#linearGradient3771-0"
       inkscape:collect="always" />
  </defs>
  <metadata
     id="metadata7">
    <rdf:RDF>
      <cc:Work
         rdf:about="">
        <dc:format>image/svg+xml</dc:format>
        <dc:type
           rdf:resource="http://purl.org/dc/dcmitype/StillImage" />
        <dc:title>2</dc:title>
        <dc:date>07.12.2011</dc:date>
        <dc:creator>
          <cc:Agent>
            <dc:title>Roman Brown</dc:title>
          </cc:Agent>
        </dc:creator>
        <dc:rights>
          <cc:Agent>
            <dc:title>Roman Brown</dc:title>
          </cc:Agent>
        </dc:rights>
        <cc:license
           rdf:resource="http://creativecommons.org/licenses/by-sa/3.0/" />
      </cc:Work>
      <cc:License
         rdf:about="http://creativecommons.org/licenses/by-sa/3.0/">
        <cc:permits
           rdf:resource="http://creativecommons.org/ns#Reproduction" />
        <cc:permits
           rdf:resource="http://creativecommons.org/ns#Distribution" />
        <cc:requires
           rdf:resource="http://creativecommons.org/ns#Notice" />
        <cc:requires
           rdf:resource="http://creativecommons.org/ns#Attribution" />
        <cc:permits
           rdf:resource="http://creativecommons.org/ns#DerivativeWorks" />
        <cc:requires
           rdf:resource="http://creativecommons.org/ns#ShareAlike" />
      </cc:License>
    </rdf:RDF>
  </metadata>
  <g
     inkscape:label="Layer 1"
     inkscape:groupmode="layer"
     id="layer1"
     style="display:inline"
     transform="translate(-165.34876,-453.66592)">
    <g
       style="font-size:818.56213379px;font-style:normal;font-variant:normal;font-weight:bold;font-stretch:normal;text-align:center;line-height:125%;letter-spacing:0px;word-spacing:0px;text-anchor:middle;fill:#ff0000;fill-opacity:1;stroke:none;font-family:Droid Serif;-inkscape-font-specification:Sans Bold"
       id="text2985"
       transform="matrix(0.59537227,0,0,0.59537227,94.274111,322.92449)">
      <g
         transform="matrix(1.6796214,0,0,1.6796214,168.73315,210.68239)"
         style="font-size:40px;line-height:125%;fill:#ff0000;font-family:Droid Serif;-inkscape-font-specification:Sans Bold"
         id="flowRoot2991" />
      <g
         style="font-size:1349.76062012px;line-height:125%;fill:#ff0000;font-family:Cansellarist;-inkscape-font-specification:Cansellarist Bold"
         id="text2999">
        <path
           d="m 500.98994,713.83019 17.6397,6.78449 c -12.66475,37.08867 -30.30443,66.48812 -52.91907,88.19846 -21.71069,22.615 -45.23025,33.92248 -70.55878,33.92249 -28.94739,-10e-6 -59.25146,-12.21209 -90.91226,-36.63629 l -40.70698,-31.20868 c -16.28289,-14.47351 -31.66106,-21.71031 -46.13458,-21.71039 -15.37823,8e-5 -25.78112,4.52308 -31.20868,13.56899 -7.23682,8.14146 -10.85522,21.71044 -10.8552,40.70698 -2e-5,21.7104 -8.14141,32.56558 -24.42419,32.56559 -19.90117,-10e-6 -29.85175,-11.75979 -29.85178,-35.27939 3e-5,-32.56552 17.6397,-65.13107 52.91907,-97.69675 26.23335,-25.32863 71.46328,-54.7281 135.68995,-88.19846 53.37116,-27.13774 94.5304,-50.20501 123.47784,-69.20186 28.04228,-18.0917 50.65724,-36.63597 67.84496,-55.63288 41.61119,-42.5158 62.41697,-86.84113 62.41738,-132.97614 -4.1e-4,-19.9007 -4.52341,-38.44497 -13.56899,-55.63288 -9.04639,-15.37764 -21.71077,-27.58973 -37.99319,-36.63628 -15.37853,-9.95002 -32.56591,-14.92531 -51.56218,-14.92589 -22.61527,5.8e-4 -44.32564,5.42816 -65.13117,16.28279 -21.71061,11.76034 -38.89799,27.13852 -51.56217,46.13458 -13.56917,18.09249 -20.35366,37.54136 -20.35349,58.34668 -1.7e-4,22.61542 12.2119,34.8275 36.63628,36.63627 17.18717,1.80962 29.39924,4.52342 36.63629,8.14141 5.42734,3.6188 8.14114,9.95099 8.14139,18.99658 -2.5e-4,9.95098 -3.61865,18.99697 -10.8552,27.13799 -9.04622,6.33256 -19.44911,9.49866 -31.20868,9.49829 -19.90138,3.7e-4 -37.08876,-7.68873 -51.56217,-23.06728 -13.56915,-14.4732 -20.35364,-33.01747 -20.35349,-55.63287 -1.5e-4,-29.85132 9.49814,-58.34619 28.49488,-85.48467 18.9964,-27.13744 44.77747,-48.84781 77.34327,-65.13117 31.6607,-16.28219 65.13086,-24.42357 100.41055,-24.42418 28.04221,6.1e-4 52.46638,4.97589 73.27256,14.92588 20.80536,9.95119 37.08814,24.42476 48.84839,43.42078 11.7593,18.99713 17.6392,41.1598 17.63969,66.48807 -4.9e-4,87.74656 -74.17758,169.16045 -222.53151,244.24189 l -99.05365,48.84839 c -75.98645,37.99333 -118.95489,72.36808 -128.90544,103.12434 19.90113,-13.56889 42.0638,-20.35337 66.48807,-20.35349 29.85165,1.2e-4 60.60801,10.8553 92.26916,32.56559 10.85499,9.04606 22.61477,17.18745 35.27938,24.42419 8.14117,5.42764 15.37795,9.49834 21.71039,12.2121 4.52275,1.80924 10.85493,2.71383 18.9966,2.71379 32.56528,4e-5 59.25094,-26.68562 80.05705,-80.05706"
           style="fill:#ff0000;font-family:Cansellarist;-inkscape-font-specification:Cansellarist Bold"
           id="path3012"
           inkscape:connector-curvature="0" />
      </g>
    </g>
  </g>
</svg>
