<?xml version="1.0" encoding="UTF-8" standalone="no"?>
<!-- Created with Inkscape (http://www.inkscape.org/) -->

<svg
   xmlns:dc="http://purl.org/dc/elements/1.1/"
   xmlns:cc="http://creativecommons.org/ns#"
   xmlns:rdf="http://www.w3.org/1999/02/22-rdf-syntax-ns#"
   xmlns:svg="http://www.w3.org/2000/svg"
   xmlns="http://www.w3.org/2000/svg"
   xmlns:sodipodi="http://sodipodi.sourceforge.net/DTD/sodipodi-0.dtd"
   xmlns:inkscape="http://www.inkscape.org/namespaces/inkscape"
   width="303.18161"
   height="372"
   id="svg3010"
   version="1.1"
   inkscape:version="0.48.2 r9819"
   sodipodi:docname="3.svg">
  <title
     id="title2984">3</title>
  <defs
     id="defs3012" />
  <sodipodi:namedview
     id="base"
     pagecolor="#ffffff"
     bordercolor="#666666"
     borderopacity="1.0"
     inkscape:pageopacity="0.0"
     inkscape:pageshadow="2"
     inkscape:zoom="1"
     inkscape:cx="162.61866"
     inkscape:cy="324.52648"
     inkscape:document-units="px"
     inkscape:current-layer="text3018"
     showgrid="false"
     fit-margin-top="1"
     fit-margin-left="1"
     fit-margin-right="1"
     fit-margin-bottom="1"
     inkscape:window-width="1280"
     inkscape:window-height="977"
     inkscape:window-x="-2"
     inkscape:window-y="24"
     inkscape:window-maximized="1" />
  <metadata
     id="metadata3015">
    <rdf:RDF>
      <cc:Work
         rdf:about="">
        <dc:format>image/svg+xml</dc:format>
        <dc:type
           rdf:resource="http://purl.org/dc/dcmitype/StillImage" />
        <dc:title>3</dc:title>
        <dc:date>06.12.2011</dc:date>
        <dc:creator>
          <cc:Agent>
            <dc:title>Roman Brown</dc:title>
          </cc:Agent>
        </dc:creator>
        <dc:rights>
          <cc:Agent>
            <dc:title>Roman Brown</dc:title>
          </cc:Agent>
        </dc:rights>
        <cc:license
           rdf:resource="http://creativecommons.org/licenses/by-sa/3.0/" />
      </cc:Work>
      <cc:License
         rdf:about="http://creativecommons.org/licenses/by-sa/3.0/">
        <cc:permits
           rdf:resource="http://creativecommons.org/ns#Reproduction" />
        <cc:permits
           rdf:resource="http://creativecommons.org/ns#Distribution" />
        <cc:requires
           rdf:resource="http://creativecommons.org/ns#Notice" />
        <cc:requires
           rdf:resource="http://creativecommons.org/ns#Attribution" />
        <cc:permits
           rdf:resource="http://creativecommons.org/ns#DerivativeWorks" />
        <cc:requires
           rdf:resource="http://creativecommons.org/ns#ShareAlike" />
      </cc:License>
    </rdf:RDF>
  </metadata>
  <g
     inkscape:label="Layer 1"
     inkscape:groupmode="layer"
     id="layer1"
     transform="translate(-212.38134,-483.96009)">
    <g
       style="font-size:1344.08605957px;font-style:normal;font-variant:normal;font-weight:bold;font-stretch:normal;text-align:center;line-height:125%;letter-spacing:0px;word-spacing:0px;text-anchor:middle;fill:#ff0000;fill-opacity:1;stroke:none;font-family:Cansellarist;-inkscape-font-specification:Cansellarist Bold"
       id="text3018">
      <path
         d="m 351.82773,671.98416 7.28665,-12.14442 c 35.62346,-7.55633 63.96042,-20.24049 85.01094,-38.05252 21.05009,-17.81156 31.57525,-38.32212 31.5755,-61.53173 -2.5e-4,-17.27175 -5.66764,-31.03542 -17.0022,-41.29102 -11.33501,-10.7947 -25.9083,-16.19221 -43.71991,-16.19256 -11.33496,3.5e-4 -22.93962,2.6991 -34.814,8.09627 -11.87469,5.93761 -21.05045,12.95438 -27.52735,21.05033 -6.47714,9.1761 -9.71566,18.35187 -9.71554,27.52736 -1.2e-4,4.85805 1.34926,8.63631 4.04814,11.33479 2.69864,2.69903 8.09615,4.85804 16.19256,6.47703 12.9539,1.61952 19.43091,7.01703 19.43107,16.19255 -1.6e-4,5.39777 -2.15916,9.98566 -6.47702,13.76368 -4.85791,4.31826 -10.5253,6.47726 -17.00219,6.47702 -9.71565,2.4e-4 -18.0818,-4.0479 -25.09846,-12.14442 -7.01688,-7.55627 -10.52527,-16.73204 -10.52517,-27.52735 -10e-5,-16.19227 5.12754,-31.03543 15.38293,-44.52953 9.17566,-12.95372 22.66945,-24.01863 40.4814,-33.19476 17.2719,-7.55616 35.62344,-11.33443 55.05471,-11.33479 23.74886,3.6e-4 43.17991,5.93763 58.29321,17.81182 14.57302,12.41463 21.85967,28.3373 21.85996,47.76805 -2.9e-4,19.9711 -8.63631,39.40215 -25.9081,58.29322 -17.81205,18.89154 -41.02137,33.7347 -69.62801,44.52954 15.11286,1.61945 26.98739,7.28684 35.62364,17.00218 8.6358,10.79521 12.9538,24.289 12.95405,40.4814 -2.5e-4,23.20946 -8.3664,46.1489 -25.09847,68.81839 -17.81202,22.66962 -40.21171,40.7513 -67.19912,54.24507 -27.52748,14.03355 -55.05481,21.05032 -82.58206,21.05033 -24.28888,-1e-5 -43.45006,-5.6674 -57.48359,-17.00219 -14.5733,-10.79502 -21.85994,-25.09843 -21.85996,-42.91028 2e-5,-16.1925 5.93728,-29.95616 17.81182,-41.29103 12.41428,-11.33469 27.25744,-17.00207 44.52954,-17.00219 10.79497,1.2e-4 18.89126,2.42899 24.28883,7.28665 6.47695,4.85787 9.71547,11.06501 9.71554,18.62144 -7e-5,4.85786 -2.15909,8.90599 -6.47702,12.14443 -4.31809,4.31808 -8.90597,6.47709 -13.76368,6.47701 -4.31807,8e-5 -8.3662,-0.80955 -12.14441,-2.42887 l -12.95405,-4.85777 c -4.31805,-1.61918 -7.82644,-2.42881 -10.52517,-2.42889 -6.47704,8e-5 -11.87455,2.42897 -16.19255,7.28666 -4.31803,4.85783 -6.47704,11.33484 -6.47703,19.43107 -1e-5,11.87458 5.66739,22.12986 17.00219,30.76586 11.33475,8.09629 25.36829,12.14443 42.10065,12.14442 22.12975,10e-6 43.18006,-5.66738 63.15098,-17.00219 19.43093,-10.795 35.3536,-25.63816 47.76806,-44.52953 12.41411,-18.35148 18.62125,-38.05241 18.62144,-59.10285 -1.9e-4,-15.65266 -4.58808,-28.06694 -13.76367,-37.24289 -9.71571,-8.63586 -22.93962,-12.95387 -39.67177,-12.95405 -2.6989,1.8e-4 -7.55666,0.53993 -14.57331,1.61926"
         id="path2985"
         inkscape:connector-curvature="0" />
    </g>
  </g>
</svg>
