<?xml version="1.0" encoding="UTF-8" standalone="no"?>
<!-- Created with Inkscape (http://www.inkscape.org/) -->

<svg
   xmlns:dc="http://purl.org/dc/elements/1.1/"
   xmlns:cc="http://creativecommons.org/ns#"
   xmlns:rdf="http://www.w3.org/1999/02/22-rdf-syntax-ns#"
   xmlns:svg="http://www.w3.org/2000/svg"
   xmlns="http://www.w3.org/2000/svg"
   xmlns:sodipodi="http://sodipodi.sourceforge.net/DTD/sodipodi-0.dtd"
   xmlns:inkscape="http://www.inkscape.org/namespaces/inkscape"
   width="254.3465"
   height="372"
   id="svg3010"
   version="1.1"
   inkscape:version="0.48.2 r9819"
   sodipodi:docname="4.svg">
  <title
     id="title2984">4</title>
  <defs
     id="defs3012" />
  <sodipodi:namedview
     id="base"
     pagecolor="#ffffff"
     bordercolor="#666666"
     borderopacity="1.0"
     inkscape:pageopacity="0.0"
     inkscape:pageshadow="2"
     inkscape:zoom="1"
     inkscape:cx="109.23231"
     inkscape:cy="340.38269"
     inkscape:document-units="px"
     inkscape:current-layer="text3018"
     showgrid="false"
     fit-margin-top="1"
     fit-margin-left="1"
     fit-margin-right="1"
     fit-margin-bottom="1"
     inkscape:window-width="1280"
     inkscape:window-height="977"
     inkscape:window-x="-2"
     inkscape:window-y="24"
     inkscape:window-maximized="1" />
  <metadata
     id="metadata3015">
    <rdf:RDF>
      <cc:Work
         rdf:about="">
        <dc:format>image/svg+xml</dc:format>
        <dc:type
           rdf:resource="http://purl.org/dc/dcmitype/StillImage" />
        <dc:title>4</dc:title>
        <dc:date>06.12.2011</dc:date>
        <dc:creator>
          <cc:Agent>
            <dc:title>Roman Brown</dc:title>
          </cc:Agent>
        </dc:creator>
        <dc:rights>
          <cc:Agent>
            <dc:title>Roman Brown</dc:title>
          </cc:Agent>
        </dc:rights>
        <cc:license
           rdf:resource="http://creativecommons.org/licenses/by-sa/3.0/" />
      </cc:Work>
      <cc:License
         rdf:about="http://creativecommons.org/licenses/by-sa/3.0/">
        <cc:permits
           rdf:resource="http://creativecommons.org/ns#Reproduction" />
        <cc:permits
           rdf:resource="http://creativecommons.org/ns#Distribution" />
        <cc:requires
           rdf:resource="http://creativecommons.org/ns#Notice" />
        <cc:requires
           rdf:resource="http://creativecommons.org/ns#Attribution" />
        <cc:permits
           rdf:resource="http://creativecommons.org/ns#DerivativeWorks" />
        <cc:requires
           rdf:resource="http://creativecommons.org/ns#ShareAlike" />
      </cc:License>
    </rdf:RDF>
  </metadata>
  <g
     inkscape:label="Layer 1"
     inkscape:groupmode="layer"
     id="layer1"
     transform="translate(-265.76769,-484.89557)">
    <g
       style="font-size:1344.08605957px;font-style:normal;font-variant:normal;font-weight:bold;font-stretch:normal;text-align:center;line-height:125%;letter-spacing:0px;word-spacing:0px;text-anchor:middle;fill:#ff0000;fill-opacity:1;stroke:none;font-family:Cansellarist;-inkscape-font-specification:Cansellarist Bold"
       id="text3018">
      <path
         d="m 389.28962,717.14557 0.8114,-1.62281 -3.24561,-1.6228 c -16.76913,-4.32735 -31.10391,-6.49108 -43.00439,-6.49123 -9.19599,1.5e-4 -17.03955,1.89342 -23.5307,5.67982 -6.49129,3.78669 -13.25298,10.81885 -20.28509,21.09649 -5.95033,9.19602 -12.98249,13.79397 -21.09649,13.79386 -2.7047,1.1e-4 -5.67985,-1.35223 -8.92544,-4.05702 -2.16375,-2.16363 -3.24563,-4.59783 -3.24561,-7.30263 -2e-5,-4.86829 4.057,-10.27765 12.17105,-16.22807 17.3099,-12.44137 32.72655,-24.88288 46.25,-37.32456 11.35957,-10.81853 24.61248,-25.69425 39.75877,-44.6272 30.29226,-38.40617 45.43844,-68.69854 45.4386,-90.87718 -1.6e-4,-8.65466 -2.1639,-16.22775 -6.49123,-22.7193 l -8.11403,-10.54825 c -2.16389,-3.24527 -3.24576,-7.03181 -3.24562,-11.35965 -1.4e-4,-4.32712 2.1636,-8.38414 6.49123,-12.17105 3.7864,-3.24525 8.65482,-4.86805 14.60526,-4.86842 9.19574,3.7e-4 16.76883,4.32785 22.7193,12.98245 5.9501,8.11439 8.92525,18.12169 8.92544,30.02194 -1.9e-4,12.44183 -2.70487,24.88334 -8.11403,37.32456 -5.40954,11.35992 -15.14637,26.23564 -29.21053,44.62719 -20.55569,27.047 -46.25011,55.17563 -77.08333,84.38596 l -4.05702,4.05702 c 21.0964,-10.27761 42.46333,-15.41649 64.10087,-15.41667 5.95016,1.8e-4 11.62997,0.27065 17.03948,0.81141 l 1.6228,-1.62281 c 4.32733,-7.57292 10.54809,-17.85069 18.66229,-30.83333 8.65479,-13.52318 16.22788,-25.15328 22.71929,-34.89035 6.49103,-9.73659 12.71178,-18.93249 18.66229,-27.58772 6.491,-9.19564 11.62989,-16.49826 15.41666,-21.9079 6.49099,-9.19561 14.87549,-20.28478 25.15351,-33.26754 l 8.92544,6.49123 -3.24561,5.67982 c -10.27803,16.22837 -21.63767,35.43156 -34.07895,57.60965 -14.06454,25.4242 -28.66979,53.8233 -43.81579,85.19737 l -0.8114,2.43421 1.6228,0.8114 c 0.54075,1.7e-4 1.62262,0.27063 3.24562,0.81141 2.16355,0.54109 5.13869,1.62297 8.92543,3.24561 11.35945,3.78671 19.74394,5.67998 25.15351,5.67982 9.19568,1.6e-4 16.22783,-5.40919 21.0965,-16.22807 3.24536,-7.03198 7.03191,-10.54806 11.35964,-10.54824 2.16349,1.8e-4 3.78629,0.54112 4.86843,1.62281 1.62254,1.62298 2.43394,3.51625 2.43421,5.67982 -2.7e-4,6.49139 -3.51635,13.25309 -10.54825,20.28509 -7.03241,7.03231 -15.68737,12.71213 -25.96491,17.03947 -11.35987,4.32762 -21.63763,6.49136 -30.83334,6.49123 -7.03234,1.3e-4 -15.95778,-1.35221 -26.77631,-4.05701 l -12.98246,27.58771 -12.17105,27.58772 c -14.60539,30.29245 -25.4241,56.25733 -32.45614,77.89474 l -47.06141,0 3.24562,-6.49123 c 17.30986,-37.32452 40.2996,-81.41073 68.9693,-132.25877"
         id="path2985"
         inkscape:connector-curvature="0" />
    </g>
  </g>
</svg>
