<?xml version="1.0" encoding="UTF-8" standalone="no"?>
<!-- Created with Inkscape (http://www.inkscape.org/) -->

<svg
   xmlns:dc="http://purl.org/dc/elements/1.1/"
   xmlns:cc="http://creativecommons.org/ns#"
   xmlns:rdf="http://www.w3.org/1999/02/22-rdf-syntax-ns#"
   xmlns:svg="http://www.w3.org/2000/svg"
   xmlns="http://www.w3.org/2000/svg"
   xmlns:sodipodi="http://sodipodi.sourceforge.net/DTD/sodipodi-0.dtd"
   xmlns:inkscape="http://www.inkscape.org/namespaces/inkscape"
   width="355.40808"
   height="372"
   id="svg3010"
   version="1.1"
   inkscape:version="0.48.2 r9819"
   sodipodi:docname="5.svg">
  <title
     id="title2984">5</title>
  <defs
     id="defs3012" />
  <sodipodi:namedview
     id="base"
     pagecolor="#ffffff"
     bordercolor="#666666"
     borderopacity="1.0"
     inkscape:pageopacity="0.0"
     inkscape:pageshadow="2"
     inkscape:zoom="1"
     inkscape:cx="175.80615"
     inkscape:cy="301.79625"
     inkscape:document-units="px"
     inkscape:current-layer="text3018"
     showgrid="false"
     fit-margin-top="1"
     fit-margin-left="1"
     fit-margin-right="1"
     fit-margin-bottom="1"
     inkscape:window-width="1280"
     inkscape:window-height="977"
     inkscape:window-x="-2"
     inkscape:window-y="24"
     inkscape:window-maximized="1" />
  <metadata
     id="metadata3015">
    <rdf:RDF>
      <cc:Work
         rdf:about="">
        <dc:format>image/svg+xml</dc:format>
        <dc:type
           rdf:resource="http://purl.org/dc/dcmitype/StillImage" />
        <dc:title>5</dc:title>
        <dc:date>06.12.2011</dc:date>
        <dc:creator>
          <cc:Agent>
            <dc:title>Roman Brown</dc:title>
          </cc:Agent>
        </dc:creator>
        <dc:rights>
          <cc:Agent>
            <dc:title>Roman Brown</dc:title>
          </cc:Agent>
        </dc:rights>
        <cc:license
           rdf:resource="http://creativecommons.org/licenses/by-sa/3.0/" />
      </cc:Work>
      <cc:License
         rdf:about="http://creativecommons.org/licenses/by-sa/3.0/">
        <cc:permits
           rdf:resource="http://creativecommons.org/ns#Reproduction" />
        <cc:permits
           rdf:resource="http://creativecommons.org/ns#Distribution" />
        <cc:requires
           rdf:resource="http://creativecommons.org/ns#Notice" />
        <cc:requires
           rdf:resource="http://creativecommons.org/ns#Attribution" />
        <cc:permits
           rdf:resource="http://creativecommons.org/ns#DerivativeWorks" />
        <cc:requires
           rdf:resource="http://creativecommons.org/ns#ShareAlike" />
      </cc:License>
    </rdf:RDF>
  </metadata>
  <g
     inkscape:label="Layer 1"
     inkscape:groupmode="layer"
     id="layer1"
     transform="translate(-199.19385,-476.27191)">
    <g
       style="font-size:1344.08605957px;font-style:normal;font-variant:normal;font-weight:bold;font-stretch:normal;text-align:center;line-height:125%;letter-spacing:0px;word-spacing:0px;text-anchor:middle;fill:#ff0000;fill-opacity:1;stroke:none;font-family:Cansellarist;-inkscape-font-specification:Cansellarist Bold"
       id="text3018">
      <path
         d="m 288.13107,671.39747 -9.12556,-5.80717 115.3139,-180.02243 c 25.44075,14.93309 48.94596,22.39944 70.51569,22.3991 29.86519,3.4e-4 56.41226,-10.23134 79.64126,-30.69506 l 9.12556,6.63677 c -28.75965,38.71483 -64.70879,58.07205 -107.84753,58.07175 -20.46359,3e-4 -40.65041,-4.42421 -60.56054,-13.27354 l -76.32287,115.3139 c 24.33471,-13.82639 46.73379,-20.73969 67.19731,-20.73991 20.46319,2.2e-4 37.60817,6.36045 51.43498,19.08072 13.27331,12.72066 19.91008,28.75951 19.91031,48.11659 -2.3e-4,16.039 -4.14821,32.90745 -12.44395,50.60538 -8.29617,17.69814 -19.63398,34.56658 -34.01345,50.60538 -15.48597,17.14503 -33.73707,30.69509 -54.75336,40.65022 -21.01656,9.95517 -41.75644,14.93274 -62.21973,14.93274 -24.88794,0 -45.07477,-5.80717 -60.56055,-17.42152 -15.48579,-11.61433 -23.22868,-26.54705 -23.22869,-44.79821 1e-5,-14.37959 5.25412,-26.547 15.76233,-36.50224 10.50821,-9.95505 23.22867,-14.93263 38.16143,-14.93274 9.95511,1.1e-4 18.25107,2.21237 24.8879,6.63677 6.08363,4.97768 9.12548,10.78485 9.12556,17.42153 -8e-5,5.53072 -1.65927,10.23176 -4.97758,14.10314 -3.31845,3.87151 -7.46643,5.80724 -12.44395,5.80717 -2.2123,7e-5 -3.31844,-0.27646 -3.31838,-0.82959 l -13.27355,-2.48879 c -3.31842,-1.10606 -7.4664,-1.65913 -12.44394,-1.65919 -6.63679,6e-5 -12.16743,1.65926 -16.59193,4.97757 -4.97759,3.87152 -7.46637,8.84909 -7.46637,14.93274 0,11.06133 6.36023,20.73994 19.08072,29.03588 12.16738,8.29597 26.2705,12.44395 42.30942,12.44394 19.35717,10e-6 38.16133,-6.36023 56.41255,-19.08072 18.80405,-12.72044 34.0133,-29.03581 45.62781,-48.94619 12.16723,-20.46327 18.25093,-40.37357 18.25112,-59.73094 -1.9e-4,-15.48565 -4.97776,-28.20611 -14.93274,-38.16144 -9.95531,-9.95497 -23.22884,-14.93254 -39.82063,-14.93273 -18.25123,1.9e-4 -37.05539,6.0839 -56.41255,18.25112"
         id="path2985"
         inkscape:connector-curvature="0" />
    </g>
  </g>
</svg>
